<svg width="103" height="72" viewBox="0 0 103 72" fill="none" xmlns="http://www.w3.org/2000/svg">
<path d="M27.4146 10.2706H35.8486V25.6765H17.8123L22.6775 13.4962C23.4456 11.5544 25.3181 10.2706 27.4146 10.2706ZM43.5305 25.6765V10.2706H56.5256C58.078 10.2706 59.5503 10.9767 60.5266 12.1963L71.2812 25.6765H43.5305ZM84.5324 25.837L68.5285 5.77722C65.6158 2.11831 61.1987 0 56.5256 0H27.4146C21.1251 0 15.4757 3.83543 13.1552 9.67684L6.49756 26.3826C2.68865 27.8911 0 31.5982 0 35.9471V53.9207C0 56.7611 2.28855 59.056 5.12123 59.056H10.4505C11.6668 66.3417 17.9883 71.8942 25.6062 71.8942C33.224 71.8942 39.5455 66.3417 40.7618 59.056H61.6628C62.8791 66.3417 69.2007 71.8942 76.8185 71.8942C84.4363 71.8942 90.7579 66.3417 91.9741 59.056H97.3034C100.136 59.056 102.425 56.7611 102.425 53.9207V46.2177C102.425 35.7545 94.6148 27.1208 84.5324 25.837ZM69.5687 53.9207C69.8948 52.954 70.4091 52.0618 71.0819 51.2961C71.7546 50.5304 72.5724 49.9064 73.4877 49.4603C74.403 49.0142 75.3976 48.7549 76.4137 48.6975C77.4298 48.6401 78.4472 48.7857 79.4066 49.1259C80.3661 49.4661 81.2486 49.9941 82.0029 50.6792C82.7572 51.3643 83.3682 52.1929 83.8004 53.1168C84.2326 54.0406 84.4775 55.0414 84.5207 56.061C84.5639 57.0806 84.4047 58.0986 84.0522 59.056C83.7262 60.0227 83.2119 60.9148 82.5391 61.6805C81.8664 62.4462 81.0486 63.0703 80.1333 63.5164C79.2179 63.9625 78.2234 64.2218 77.2073 64.2792C76.1912 64.3366 75.1738 64.1909 74.2143 63.8507C73.2549 63.5105 72.3723 62.9825 71.6181 62.2974C70.8638 61.6123 70.2528 60.7838 69.8206 59.8599C69.3884 58.936 69.1435 57.9352 69.1003 56.9156C69.0571 55.896 69.2163 54.878 69.5687 53.9207ZM25.6062 48.7854C27.6435 48.7854 29.5974 49.5969 31.0381 51.0415C32.4787 52.4861 33.288 54.4454 33.288 56.4883C33.288 58.5313 32.4787 60.4906 31.0381 61.9351C29.5974 63.3797 27.6435 64.1913 25.6062 64.1913C23.5688 64.1913 21.6149 63.3797 20.1743 61.9351C18.7337 60.4906 17.9243 58.5313 17.9243 56.4883C17.9243 54.4454 18.7337 52.4861 20.1743 51.0415C21.6149 49.5969 23.5688 48.7854 25.6062 48.7854Z" fill="#1171A8" fill-opacity="0.1"/>
</svg>
