<svg width="16" height="14" viewBox="0 0 16 14" fill="none" xmlns="http://www.w3.org/2000/svg">
  <g clip-path="url(#clip0_462_5001)">
    <path opacity="0.4" d="M2.53343 10.8551C2.53343 10.9687 2.57776 11.0777 2.65668 11.158C2.73561 11.2383 2.84264 11.2835 2.95426 11.2835H3.2804C3.51883 11.2836 3.75126 11.2075 3.9448 11.0657C4.13834 10.924 4.28317 10.7239 4.35878 10.4937L4.63758 9.6397L5.07945 10.9917C5.19781 11.3531 5.68703 11.3906 5.85536 11.0479L6.05788 10.6383C6.08153 10.5879 6.11888 10.5455 6.1655 10.5161C6.21212 10.4866 6.26605 10.4714 6.3209 10.4723C6.37736 10.4718 6.43276 10.488 6.48037 10.5188C6.52799 10.5497 6.56578 10.594 6.58918 10.6463C6.68167 10.835 6.8233 10.9942 6.99863 11.1066C7.17395 11.219 7.37623 11.2801 7.58339 11.2835H10.2399L10.95 10.5553V13.2137C10.95 13.298 10.9337 13.3814 10.9019 13.4592C10.8702 13.537 10.8236 13.6076 10.765 13.6671C10.7063 13.7265 10.6367 13.7736 10.5602 13.8056C10.4836 13.8376 10.4016 13.8539 10.3188 13.8535H1.47872C1.39595 13.8535 1.31399 13.8369 1.23755 13.8046C1.16111 13.7723 1.09169 13.7249 1.03329 13.6652C0.974881 13.6055 0.928632 13.5346 0.897197 13.4567C0.865761 13.3788 0.849757 13.2953 0.850103 13.211V0.786331C0.850102 0.70208 0.866449 0.618659 0.898204 0.540854C0.929959 0.46305 0.976498 0.392396 1.03515 0.332946C1.0938 0.273496 1.16341 0.226422 1.23998 0.194424C1.31655 0.162427 1.39858 0.146137 1.48135 0.14649H7.58339V3.14491C7.58339 3.25851 7.62773 3.36746 7.70665 3.44779C7.78557 3.52812 7.89261 3.57325 8.00422 3.57325H10.95V6.8849L8.42505 9.43623V10.4268H7.58339C7.53093 10.422 7.48059 10.4034 7.43726 10.3729C7.39393 10.3424 7.3591 10.301 7.33615 10.2528C7.02316 9.61292 6.11838 9.43891 5.60023 9.87261L5.23463 8.75891C5.19312 8.63036 5.1128 8.51844 5.00512 8.43909C4.89743 8.35974 4.76789 8.31702 4.63495 8.31702C4.50201 8.31702 4.37246 8.35974 4.26478 8.43909C4.1571 8.51844 4.07678 8.63036 4.03526 8.75891L3.5592 10.2206C3.53987 10.2804 3.50254 10.3325 3.4525 10.3695C3.40246 10.4065 3.34225 10.4266 3.2804 10.4268H2.95426C2.84264 10.4268 2.73561 10.4719 2.65668 10.5522C2.57776 10.6326 2.53343 10.7415 2.53343 10.8551Z" fill="#F84300"/>
    <path d="M10.9497 3.40994C10.9497 3.32592 10.9334 3.24271 10.9018 3.16508C10.8702 3.08746 10.8239 3.01692 10.7655 2.9575L8.19058 0.333887C8.13181 0.274273 8.06207 0.227036 7.98534 0.19488C7.90862 0.162724 7.82642 0.146279 7.74345 0.146486H7.58301V3.1449C7.58301 3.25851 7.62734 3.36746 7.70627 3.44779C7.78519 3.52812 7.89223 3.57325 8.00384 3.57325H10.9497V3.40994ZM8.42467 9.43623V11.2835H10.2395L14.4925 6.92505L12.7066 5.10726L8.42467 9.43623ZM15.805 4.62537L14.966 3.77136C14.8402 3.64384 14.67 3.57224 14.4925 3.57224C14.315 3.57224 14.1448 3.64384 14.0191 3.77136L13.301 4.50222L15.0869 6.32002L15.805 5.58915C15.9303 5.46119 16.0006 5.28791 16.0006 5.10726C16.0006 4.92661 15.9303 4.75333 15.805 4.62537Z" fill="#F84300"/>
  </g>
  <defs>
    <clipPath id="clip0_462_5001">
      <rect width="15.1499" height="13.7071" fill="white" transform="translate(0.850098 0.146484)"/>
    </clipPath>
  </defs>
</svg>
