<svg width="397" height="60" viewBox="0 0 397 60" fill="none" xmlns="http://www.w3.org/2000/svg">
<g clip-path="url(#clip0_1_109)">
<path d="M119.77 3.89328L71.005 47.8016L78.1982 55.7904L126.963 11.8821L119.77 3.89328Z" fill="#FF4100"/>
<path d="M204.15 3.75H214.13V55.87H204.15V3.75ZM281.1 55.87H291.08V3.75H281.1V55.87ZM79.42 28.61C79.42 18.43 87.68 10.17 97.86 10.17C101.36 10.17 104.63 11.14 107.41 12.83V1.64C104.42 0.58 101.21 0 97.86 0C82.06 0 69.25 12.81 69.25 28.61C69.25 31.34 69.64 33.98 70.35 36.48H81.18C80.05 34.09 79.42 31.43 79.42 28.61ZM118.56 31.07C118.56 41.26 110.3 49.51 100.12 49.51C96.62 49.51 93.36 48.54 90.57 46.85V58.05C93.56 59.11 96.77 59.69 100.12 59.69C115.92 59.69 128.73 46.88 128.73 31.08C128.73 28.35 128.34 25.71 127.63 23.21H116.8C117.93 25.6 118.56 28.26 118.56 31.08M9.79 3.75H0V55.87H9.68V21.53L23.14 44.97H30.44L43.9 21.53V55.88H53.59V3.75H43.8L26.79 34.1L9.79 3.75ZM244.02 3.75H234.04V55.87H268.37V46.82H244.02V3.75ZM186.78 40.53C186.78 49.61 181.24 55.87 167.16 55.87H144.29V3.75H165.97C178.48 3.75 184.17 9.48 184.17 17.97C184.17 22.74 181.98 26.98 177.14 28.47C183.47 29.89 186.78 34.5 186.78 40.53ZM154.1 25.29H165.92C171.44 25.29 174.3 23.27 174.3 19C174.3 14.73 171.43 12.9 165.92 12.9H154.1V25.29ZM176.32 39.99C176.32 35.29 173.29 32.96 166.92 32.96H154.09V46.82H166.92C173.29 46.82 176.32 44.77 176.32 39.99ZM372.93 46.82V33.53H394.25V24.67H372.93V12.9H396.85V3.75H362.95V55.87H396.85V46.82H372.93ZM346.69 13.23V3.75H309.16V12.9H334.84L307.82 46.82V55.87H346.74V46.82H319.89L346.69 13.23Z" fill="black"/>
</g>
<defs>
<clipPath id="clip0_1_109">
<rect width="396.85" height="59.68" fill="white"/>
</clipPath>
</defs>
</svg>
