<svg width="204" height="191" viewBox="0 0 204 191" fill="none" xmlns="http://www.w3.org/2000/svg">
  <circle cx="90.5046" cy="102" r="80" fill="#EFF7FC"/>
  <path d="M127.423 51.8088L99.4409 56.4387C98.3807 56.6142 97.2943 56.3613 96.4206 55.7356C95.5469 55.11 94.9575 54.163 94.7821 53.1028L90.1521 25.1211L32.19 34.7118C31.4032 34.8386 30.6492 35.1195 29.9713 35.5385C29.2934 35.9574 28.7049 36.5061 28.2395 37.1531C27.7742 37.8001 27.4413 38.5326 27.2598 39.3086C27.0783 40.0846 27.0518 40.8888 27.1819 41.675L46.3674 157.624C46.4942 158.411 46.7752 159.165 47.1941 159.843C47.6131 160.521 48.1618 161.109 48.8087 161.575C49.4557 162.04 50.1882 162.373 50.9642 162.554C51.7402 162.736 52.5444 162.762 53.3306 162.632L137.301 148.738C138.088 148.611 138.842 148.33 139.519 147.911C140.197 147.493 140.786 146.944 141.251 146.297C141.717 145.65 142.049 144.917 142.231 144.141C142.412 143.365 142.439 142.561 142.309 141.775L127.423 51.8088ZM113.525 116.737C113.657 117.533 113.467 118.347 112.998 119.003C112.528 119.658 111.818 120.1 111.023 120.232L69.0505 127.177C68.2554 127.308 67.4405 127.118 66.7853 126.649C66.13 126.18 65.688 125.47 65.5564 124.675L65.2257 122.676C65.0941 121.881 65.2838 121.066 65.753 120.411C66.2222 119.755 66.9325 119.313 67.7276 119.182L109.7 112.237C110.495 112.105 111.31 112.295 111.965 112.764C112.621 113.233 113.063 113.944 113.194 114.739L113.525 116.737ZM110.879 100.748C111.011 101.543 110.821 102.358 110.352 103.013C109.883 103.668 109.172 104.11 108.377 104.242L66.4048 111.187C65.6097 111.319 64.7948 111.129 64.1396 110.66C63.4843 110.19 63.0422 109.48 62.9107 108.685L62.58 106.686C62.4484 105.891 62.6381 105.076 63.1073 104.421C63.5765 103.766 64.2868 103.324 65.0819 103.192L107.055 96.2473C107.85 96.1157 108.664 96.3054 109.32 96.7746C109.975 97.2438 110.417 97.9541 110.549 98.7492L110.879 100.748ZM108.234 84.7584C108.365 85.5535 108.175 86.3683 107.706 87.0236C107.237 87.6789 106.527 88.1209 105.732 88.2525L63.7591 95.1975C62.964 95.329 62.1491 95.1393 61.4939 94.6701C60.8386 94.2009 60.3965 93.4906 60.265 92.6955L59.9343 90.6968C59.8027 89.9017 59.9924 89.0868 60.4616 88.4316C60.9308 87.7763 61.6411 87.3342 62.4362 87.2027L104.409 80.2577C105.204 80.1261 106.019 80.3158 106.674 80.785C107.329 81.2543 107.771 81.9645 107.903 82.7597L108.234 84.7584Z" fill="#F27D55"/>
  <path d="M154.416 45.4152H126.053C124.979 45.4152 123.948 44.9883 123.188 44.2285C122.429 43.4686 122.002 42.438 122.002 41.3634V13.0013H63.2515C62.4546 12.9979 61.6648 13.152 60.9276 13.4547C60.1904 13.7574 59.5202 14.2026 58.9555 14.765C58.3908 15.3273 57.9427 15.9956 57.637 16.7316C57.3313 17.4675 57.1739 18.2566 57.1739 19.0536V136.579C57.1705 137.376 57.3246 138.166 57.6273 138.903C57.93 139.64 58.3752 140.311 58.9376 140.875C59.4999 141.44 60.1682 141.888 60.9042 142.194C61.6401 142.5 62.4292 142.657 63.2262 142.657H148.338C149.135 142.66 149.925 142.506 150.662 142.203C151.399 141.901 152.069 141.456 152.634 140.893C153.199 140.331 153.647 139.663 153.952 138.927C154.258 138.191 154.416 137.402 154.416 136.605V45.4152ZM130.105 107.204C130.105 108.01 129.785 108.783 129.215 109.353C128.645 109.923 127.872 110.243 127.066 110.243H84.5231C83.7172 110.243 82.9442 109.923 82.3744 109.353C81.8045 108.783 81.4843 108.01 81.4843 107.204V105.178C81.4843 104.372 81.8045 103.599 82.3744 103.03C82.9442 102.46 83.7172 102.14 84.5231 102.14H127.066C127.872 102.14 128.645 102.46 129.215 103.03C129.785 103.599 130.105 104.372 130.105 105.178V107.204ZM130.105 90.9972C130.105 91.8032 129.785 92.5761 129.215 93.146C128.645 93.7159 127.872 94.036 127.066 94.036H84.5231C83.7172 94.036 82.9442 93.7159 82.3744 93.146C81.8045 92.5761 81.4843 91.8032 81.4843 90.9972V88.9714C81.4843 88.1654 81.8045 87.3925 82.3744 86.8226C82.9442 86.2527 83.7172 85.9326 84.5231 85.9326H127.066C127.872 85.9326 128.645 86.2527 129.215 86.8226C129.785 87.3925 130.105 88.1654 130.105 88.9714V90.9972ZM130.105 74.7903C130.105 75.5962 129.785 76.3692 129.215 76.939C128.645 77.5089 127.872 77.8291 127.066 77.8291H84.5231C83.7172 77.8291 82.9442 77.5089 82.3744 76.939C81.8045 76.3692 81.4843 75.5962 81.4843 74.7903V72.7644C81.4843 71.9585 81.8045 71.1855 82.3744 70.6157C82.9442 70.0458 83.7172 69.7256 84.5231 69.7256H127.066C127.872 69.7256 128.645 70.0458 129.215 70.6157C129.785 71.1855 130.105 71.9585 130.105 72.7644V74.7903Z" fill="#FBA180"/>
  <path d="M127.066 102.139H84.5229C83.717 102.139 82.9441 102.459 82.3742 103.029C81.8043 103.598 81.4841 104.371 81.4841 105.177V107.203C81.4841 108.009 81.8043 108.782 82.3742 109.352C82.9441 109.922 83.717 110.242 84.5229 110.242H127.066C127.872 110.242 128.645 109.922 129.215 109.352C129.785 108.782 130.105 108.009 130.105 107.203V105.177C130.105 104.371 129.785 103.598 129.215 103.029C128.645 102.459 127.872 102.139 127.066 102.139ZM127.066 85.9316H84.5229C83.717 85.9316 82.9441 86.2517 82.3742 86.8216C81.8043 87.3915 81.4841 88.1644 81.4841 88.9704V90.9962C81.4841 91.8022 81.8043 92.5751 82.3742 93.145C82.9441 93.7149 83.717 94.035 84.5229 94.035H127.066C127.872 94.035 128.645 93.7149 129.215 93.145C129.785 92.5751 130.105 91.8022 130.105 90.9962V88.9704C130.105 88.1644 129.785 87.3915 129.215 86.8216C128.645 86.2517 127.872 85.9316 127.066 85.9316ZM127.066 69.7246H84.5229C83.717 69.7246 82.9441 70.0448 82.3742 70.6147C81.8043 71.1845 81.4841 71.9575 81.4841 72.7634V74.7893C81.4841 75.5952 81.8043 76.3682 82.3742 76.938C82.9441 77.5079 83.717 77.8281 84.5229 77.8281H127.066C127.872 77.8281 128.645 77.5079 129.215 76.938C129.785 76.3682 130.105 75.5952 130.105 74.7893V72.7634C130.105 71.9575 129.785 71.1845 129.215 70.6147C128.645 70.0448 127.872 69.7246 127.066 69.7246Z" fill="white"/>
  <path d="M127.066 102.139H84.5229C83.717 102.139 82.9441 102.459 82.3742 103.029C81.8043 103.598 81.4841 104.371 81.4841 105.177V107.203C81.4841 108.009 81.8043 108.782 82.3742 109.352C82.9441 109.922 83.717 110.242 84.5229 110.242H127.066C127.872 110.242 128.645 109.922 129.215 109.352C129.785 108.782 130.105 108.009 130.105 107.203V105.177C130.105 104.371 129.785 103.598 129.215 103.029C128.645 102.459 127.872 102.139 127.066 102.139ZM127.066 85.9316H84.5229C83.717 85.9316 82.9441 86.2517 82.3742 86.8216C81.8043 87.3915 81.4841 88.1644 81.4841 88.9704V90.9962C81.4841 91.8022 81.8043 92.5751 82.3742 93.145C82.9441 93.7149 83.717 94.035 84.5229 94.035H127.066C127.872 94.035 128.645 93.7149 129.215 93.145C129.785 92.5751 130.105 91.8022 130.105 90.9962V88.9704C130.105 88.1644 129.785 87.3915 129.215 86.8216C128.645 86.2517 127.872 85.9316 127.066 85.9316ZM127.066 69.7246H84.5229C83.717 69.7246 82.9441 70.0448 82.3742 70.6147C81.8043 71.1845 81.4841 71.9575 81.4841 72.7634V74.7893C81.4841 75.5952 81.8043 76.3682 82.3742 76.938C82.9441 77.5079 83.717 77.8281 84.5229 77.8281H127.066C127.872 77.8281 128.645 77.5079 129.215 76.938C129.785 76.3682 130.105 75.5952 130.105 74.7893V72.7634C130.105 71.9575 129.785 71.1845 129.215 70.6147C128.645 70.0448 127.872 69.7246 127.066 69.7246Z" fill="#FEE3D9"/>
  <path d="M152.643 39.5898L127.851 14.7729C127.285 14.209 126.614 13.7622 125.875 13.458C125.136 13.1539 124.345 12.9983 123.546 13.0003H122.001V41.3624C122.001 42.437 122.428 43.4676 123.188 44.2274C123.948 44.9873 124.979 45.4142 126.053 45.4142H154.415V43.8694C154.415 43.0746 154.259 42.2876 153.955 41.5533C153.651 40.819 153.205 40.1518 152.643 39.5898Z" fill="white"/>
  <path d="M152.643 39.5898L127.851 14.7729C127.285 14.209 126.614 13.7622 125.875 13.458C125.136 13.1539 124.345 12.9983 123.546 13.0003H122.001V41.3624C122.001 42.437 122.428 43.4676 123.188 44.2274C123.948 44.9873 124.979 45.4142 126.053 45.4142H154.415V43.8694C154.415 43.0746 154.259 42.2876 153.955 41.5533C153.651 40.819 153.205 40.1518 152.643 39.5898Z" fill="#F84300"/>
  <g filter="url(#filter0_d_425_3177)">
    <path d="M193.147 112.331C190.352 116.113 186.644 119.125 182.369 121.084C178.094 123.043 173.391 123.887 168.702 123.535C164.012 123.184 159.488 121.649 155.553 119.075L144.853 122.718C144.529 122.827 144.179 122.84 143.848 122.755C143.516 122.671 143.215 122.492 142.982 122.242C142.749 121.991 142.593 121.678 142.533 121.341C142.472 121.004 142.51 120.657 142.642 120.341L146.946 110.069C144.669 106.259 143.338 101.959 143.063 97.5295C142.788 93.0998 143.578 88.6686 145.366 84.6063C147.153 80.544 149.888 76.9687 153.34 74.1791C156.792 71.3895 160.861 69.4668 165.208 68.5716C169.555 67.6763 174.054 67.8346 178.327 69.0332C182.6 70.2318 186.525 72.4359 189.772 75.4612C193.019 78.4866 195.496 82.2453 196.993 86.4232C200.007 94.828 198.367 105.268 193.147 112.331Z" fill="#BFE0F5"/>
    <path d="M170.558 110.257C173.15 110.257 174.96 108.488 174.96 106.019C174.96 103.509 173.15 101.74 170.558 101.74C168.007 101.74 166.155 103.509 166.155 106.019C166.155 108.488 168.007 110.257 170.558 110.257ZM174.59 80.0564H166.526V88.1209L168.583 99.2713H172.492L174.59 88.1209V80.0564Z" fill="#3E95CD"/>
  </g>
  <path d="M169.31 19.9312C169.31 22.071 167.576 23.8057 165.436 23.8057C163.296 23.8057 161.561 22.071 161.561 19.9312C161.561 17.7914 163.296 16.0567 165.436 16.0567C167.576 16.0567 169.31 17.7914 169.31 19.9312Z" stroke="#BFE0F5" stroke-width="2.11336"/>
  <circle cx="5.43582" cy="142.931" r="3.8745" stroke="#BFE0F5" stroke-width="2.11336"/>
  <circle cx="95.4358" cy="181.931" r="3.8745" stroke="#BFE0F5" stroke-width="2.11336"/>
  <path d="M18.8281 6.80829C19.2446 5.083 21.6986 5.08301 22.1151 6.80829L23.5168 12.615C23.6656 13.2315 24.147 13.7129 24.7636 13.8617L30.5702 15.2634C32.2955 15.6799 32.2955 18.1339 30.5702 18.5504L24.7636 19.9521C24.147 20.1009 23.6656 20.5823 23.5168 21.1989L22.1151 27.0056C21.6986 28.7308 19.2446 28.7308 18.8281 27.0055L17.4264 21.1989C17.2776 20.5823 16.7962 20.1009 16.1797 19.9521L10.373 18.5504C8.6477 18.1339 8.64771 15.6799 10.373 15.2634L16.1797 13.8617C16.7962 13.7129 17.2776 13.2315 17.4264 12.615L18.8281 6.80829Z" fill="#BFE0F5"/>
  <path d="M153.688 163.808C154.104 162.083 156.558 162.083 156.975 163.808L158.376 169.615C158.525 170.232 159.007 170.713 159.623 170.862L165.43 172.263C167.155 172.68 167.155 175.134 165.43 175.55L159.623 176.952C159.007 177.101 158.525 177.582 158.376 178.199L156.975 184.006C156.558 185.731 154.104 185.731 153.688 184.006L152.286 178.199C152.137 177.582 151.656 177.101 151.039 176.952L145.233 175.55C143.507 175.134 143.507 172.68 145.233 172.263L151.039 170.862C151.656 170.713 152.137 170.232 152.286 169.615L153.688 163.808Z" fill="#BFE0F5"/>
  <path d="M14.4718 100.853C15.5427 100.681 16.3977 101.734 16.0108 102.747L13.3989 109.586C13.012 110.599 11.6733 110.813 10.9893 109.972L6.37236 104.29C5.68837 103.449 6.17204 102.182 7.24298 102.011L14.4718 100.853Z" fill="#BFE0F5"/>
  <path d="M167.149 48.2851C166.881 47.2342 167.851 46.2872 168.895 46.5807L175.943 48.5612C176.987 48.8546 177.322 50.1683 176.546 50.9259L171.307 56.0393C170.531 56.7968 169.226 56.43 168.958 55.3791L167.149 48.2851Z" fill="#BFE0F5"/>
  <defs>
    <filter id="filter0_d_425_3177" x="137.505" y="65" width="65.991" height="65.613" filterUnits="userSpaceOnUse" color-interpolation-filters="sRGB">
      <feFlood flood-opacity="0" result="BackgroundImageFix"/>
      <feColorMatrix in="SourceAlpha" type="matrix" values="0 0 0 0 0 0 0 0 0 0 0 0 0 0 0 0 0 0 127 0" result="hardAlpha"/>
      <feOffset dy="2"/>
      <feGaussianBlur stdDeviation="2.5"/>
      <feComposite in2="hardAlpha" operator="out"/>
      <feColorMatrix type="matrix" values="0 0 0 0 0.0208957 0 0 0 0 0.117159 0 0 0 0 0.18334 0 0 0 0.1 0"/>
      <feBlend mode="normal" in2="BackgroundImageFix" result="effect1_dropShadow_425_3177"/>
      <feBlend mode="normal" in="SourceGraphic" in2="effect1_dropShadow_425_3177" result="shape"/>
    </filter>
  </defs>
</svg>
