<svg width="139" height="130" viewBox="0 0 139 130" fill="none" xmlns="http://www.w3.org/2000/svg">
<path d="M129.411 61.2676L99.6123 53.283C98.4833 52.9805 97.5201 52.244 96.9347 51.2356C96.3492 50.2272 96.1895 49.0295 96.4905 47.9059L104.437 18.2504L42.7108 1.71104C41.8744 1.48321 41.0015 1.42199 40.1422 1.53091C39.2828 1.63983 38.4539 1.91674 37.7031 2.34575C36.9522 2.77476 36.2942 3.34742 35.7668 4.03085C35.2394 4.71429 34.853 5.49506 34.6297 6.32833L1.70284 129.213C1.47606 130.045 1.41669 130.915 1.52814 131.771C1.63959 132.627 1.91965 133.453 2.35227 134.201C2.78488 134.95 3.36152 135.607 4.04909 136.134C4.73666 136.661 5.52163 137.047 6.35893 137.272L95.7817 161.232C96.618 161.46 97.4909 161.521 98.3503 161.413C99.2096 161.304 100.039 161.027 100.789 160.598C101.54 160.169 102.198 159.596 102.726 158.913C103.253 158.229 103.639 157.448 103.863 156.615L129.411 61.2676ZM77.8596 102.964L45.8438 121.346L32.6366 119.339C32.4363 119.309 32.24 119.256 32.0513 119.182C31.3612 118.912 30.8058 118.381 30.5061 117.705C30.2064 117.029 30.1868 116.264 30.4514 115.575L35.3078 103.198L67.3235 84.8161C67.6454 84.632 68.0278 84.5827 68.3869 84.6789C68.7459 84.7751 69.0524 85.009 69.2392 85.3294L78.3704 101.058C78.556 101.379 78.6065 101.759 78.5108 102.117C78.415 102.474 78.1809 102.779 77.8596 102.964ZM96.6309 92.1865L87.8687 97.2173C87.5468 97.4014 87.1644 97.4507 86.8054 97.3545C86.4463 97.2583 86.1398 97.0244 85.9531 96.704L76.8218 80.9759C76.6362 80.6548 76.5857 80.2739 76.6815 79.9166C76.7772 79.5593 77.0114 79.2546 77.3327 79.0694L86.0949 74.0387C86.7275 73.6745 87.4264 73.4383 88.1515 73.3437C88.8766 73.2491 89.6136 73.2978 90.3204 73.4872C91.0273 73.6766 91.69 74.0029 92.2706 74.4474C92.8512 74.8919 93.3384 75.4459 93.7042 76.0776L98.66 84.6138C99.0273 85.2447 99.2661 85.9412 99.3629 86.6635C99.4597 87.3858 99.4124 88.1197 99.224 88.8231C99.0355 89.5266 98.7094 90.1857 98.2645 90.7629C97.8195 91.34 97.2644 91.8238 96.6309 92.1865Z" fill="#7FBFE8"/>
<path d="M129.18 54.6785L110.086 21.7506C109.649 21.0017 109.069 20.3455 108.378 19.8195C107.687 19.2935 106.899 18.9081 106.06 18.6852L104.437 18.2503L96.4905 47.9058C96.1894 49.0294 96.3492 50.2271 96.9346 51.2355C97.5201 52.2439 98.4832 52.9804 99.6122 53.2829L129.411 61.2675L129.844 59.6523C130.066 58.8213 130.122 57.9543 130.009 57.1009C129.895 56.2475 129.613 55.4243 129.18 54.6785ZM78.3703 101.057L69.2391 85.3293C69.0523 85.0089 68.7458 84.775 68.3868 84.6788C68.0277 84.5825 67.6454 84.6319 67.3234 84.816L35.3077 103.198L30.4513 115.575C30.1867 116.264 30.2064 117.029 30.506 117.705C30.8057 118.381 31.3611 118.912 32.0512 119.182C32.2399 119.256 32.4362 119.309 32.6366 119.339L45.8438 121.345L77.8595 102.964C78.1808 102.779 78.4149 102.474 78.5107 102.117C78.6064 101.759 78.5559 101.378 78.3703 101.057ZM98.6599 84.6137L93.7041 76.0775C93.3383 75.4458 92.8511 74.8918 92.2705 74.4473C91.6899 74.0028 91.0272 73.6765 90.3203 73.4871C89.6135 73.2977 88.8765 73.2489 88.1514 73.3436C87.4263 73.4382 86.7274 73.6744 86.0948 74.0386L77.3326 79.0693C77.0113 79.2545 76.7771 79.5592 76.6814 79.9165C76.5856 80.2738 76.6361 80.6547 76.8217 80.9757L85.953 96.7039C86.1397 97.0243 86.4462 97.2582 86.8053 97.3544C87.1643 97.4506 87.5467 97.4013 87.8686 97.2172L96.6308 92.1864C97.2643 91.8237 97.8194 91.3399 98.2644 90.7627C98.7093 90.1856 99.0354 89.5264 99.2239 88.823C99.4124 88.1196 99.4596 87.3857 99.3628 86.6634C99.266 85.9411 99.0272 85.2446 98.6599 84.6137Z" fill="#387BA6"/>
</svg>
